<?xml version="1.0" ?><svg enable-background="new 0 0 32 32" version="1.1" viewBox="0 0 32 32" xml:space="preserve" xmlns="http://www.w3.org/2000/svg" xmlns:xlink="http://www.w3.org/1999/xlink"><g id="Layer_4_copy_2"><polygon fill="#0BA4E0" points="3.22,0.003 3.22,24.828 12.044,24.828 15.942,31.997 19.839,24.828 28.78,24.828 28.78,0.003  "/></g><g id="Official_copy_2"><g><path d="M23.2,10.99c0.094,0.501,0.145,1.026,0.145,1.574c0,4.282-2.867,7.327-7.195,7.327    c-4.141,0-7.496-3.354-7.496-7.496S12.009,4.9,16.15,4.9c2.024,0,3.715,0.745,5.013,1.953L19.05,8.966V8.961    c-0.787-0.75-1.785-1.134-2.9-1.134c-2.473,0-4.483,2.089-4.483,4.563c0,2.473,2.01,4.568,4.483,4.568    c2.244,0,3.771-1.284,4.085-3.045H16.15V10.99L23.2,10.99L23.2,10.99z" fill="#FFFFFF"/></g></g></svg>