<?xml version="1.0" ?><svg enable-background="new 0 0 32 32" version="1.1" viewBox="0 0 32 32" xml:space="preserve" xmlns="http://www.w3.org/2000/svg" xmlns:xlink="http://www.w3.org/1999/xlink"><g id="Layer_4_copy_2"><polygon fill="#0BA4E0" points="3.22,0.003 3.22,24.828 12.044,24.828 15.942,31.997 19.839,24.828 28.78,24.828 28.78,0.003  "/></g><g id="Official_copy_2"><g><path d="M22.77,18.846V13.84c0-2.682-1.432-3.931-3.341-3.931c-1.541,0-2.231,0.848-2.616,1.442v-1.237h-2.903    c0.038,0.819,0,8.732,0,8.732h2.903V13.97c0-0.26,0.019-0.521,0.096-0.707c0.209-0.522,0.687-1.061,1.488-1.061    c1.051,0,1.47,0.801,1.47,1.974v4.672L22.77,18.846L22.77,18.846z M10.853,8.922c1.012,0,1.642-0.671,1.642-1.509    c-0.019-0.856-0.631-1.508-1.623-1.508S9.23,6.556,9.23,7.413c0,0.838,0.63,1.509,1.604,1.509H10.853z M12.304,18.846v-8.732    H9.402v8.732H12.304z" fill="#FFFFFF"/></g></g></svg>