<?xml version="1.0" ?><svg enable-background="new 0 0 32 32" version="1.1" viewBox="0 0 32 32" xml:space="preserve" xmlns="http://www.w3.org/2000/svg" xmlns:xlink="http://www.w3.org/1999/xlink"><g id="Layer_4_copy_2"><polygon fill="#0BA4E0" points="3.22,0.003 3.22,24.828 12.044,24.828 15.942,31.997 19.839,24.828 28.78,24.828 28.78,0.003  "/></g><g id="Official_copy_2"><g><g><path d="M15.958,12.869c-0.394-0.364-0.831-0.875-1.02-1.327c-0.029-0.058-0.087-0.204,0-0.321     c0.175-0.233,0.204-0.248,0.393-0.467c0.131-0.161,0.233-0.306,0.19-0.438l-0.656-1.706c-0.058-0.117-0.233-0.131-0.437-0.146     c-0.175,0-0.364,0-0.496,0.029c-0.291,0.102-0.889,0.89-0.962,1.458c-0.16,1.239,0.962,2.887,2.084,3.908     c1.123,1.035,2.857,2.013,4.081,1.735c0.568-0.131,1.298-0.787,1.356-1.094c0.029-0.131,0.015-0.321-0.015-0.496     c-0.015-0.204-0.058-0.35-0.175-0.408l-1.486-0.686c-0.132-0.073-0.263-0.015-0.394,0.146c-0.16,0.219-0.233,0.306-0.423,0.54     c-0.102,0.131-0.175,0.219-0.291,0.233c-0.132,0.029-0.306-0.044-0.335-0.044C16.905,13.628,16.366,13.234,15.958,12.869     L15.958,12.869z M11.06,18.105l0.845-2.144c-0.933-1.079-1.501-2.494-1.501-4.04c0-3.412,2.769-6.169,6.18-6.169     c3.411,0,6.165,2.756,6.165,6.169c0,3.413-2.755,6.183-6.165,6.183c-1.37,0-2.624-0.438-3.644-1.196L11.06,18.105z      M10.026,16.005L8.86,20.672l4.168-1.896c1.064,0.554,2.274,0.875,3.557,0.875c4.256,0,7.71-3.457,7.71-7.729     c0-4.258-3.455-7.714-7.71-7.714c-4.271,0-7.725,3.456-7.725,7.714C8.86,13.423,9.297,14.824,10.026,16.005L10.026,16.005z" fill="#FFFFFF"/></g></g></g></svg>